<svg width="597" height="857" xmlns="http://www.w3.org/2000/svg" xmlns:xlink="http://www.w3.org/1999/xlink" xml:space="preserve" overflow="hidden"><defs><clipPath id="clip0"><rect x="582" y="445" width="597" height="857"/></clipPath></defs><g clip-path="url(#clip0)" transform="translate(-582 -445)"><path d="M582 517.246C582 477.346 614.346 445 654.246 445L769.754 445C809.654 445 842 477.346 842 517.246L842 1229.75C842 1269.65 809.654 1302 769.754 1302L654.246 1302C614.346 1302 582 1269.65 582 1229.75Z" fill="#002776" fill-rule="evenodd"/><path d="M919 908.246C919 868.346 951.346 836 991.246 836L1106.75 836C1146.65 836 1179 868.346 1179 908.246L1179 1229.75C1179 1269.65 1146.65 1302 1106.75 1302L991.246 1302C951.346 1302 919 1269.65 919 1229.75Z" fill="#00897B" fill-rule="evenodd"/></g></svg>